<?xml version="1.0" encoding="iso-8859-1"?>
<!-- Generator: Adobe Illustrator 19.0.0, SVG Export Plug-In . SVG Version: 6.00 Build 0)  -->
<svg version="1.1" id="Layer_1" xmlns="http://www.w3.org/2000/svg" xmlns:xlink="http://www.w3.org/1999/xlink" x="0px" y="0px"
	 viewBox="0 0 503.444 503.444" style="enable-background:new 0 0 503.444 503.444;" xml:space="preserve">
<g>
	<path style="fill:#E39700;" d="M17.417,26.155V434.02c21.851-10.926,47.573-10.926,69.424,0V26.155
		c0-14.379-11.655-26.034-26.034-26.034H43.451C29.071,0.121,17.417,11.776,17.417,26.155"/>
	<path style="fill:#434C6D;" d="M355.857,34.712V17.356C355.857,7.767,348.082,0,338.501,0h-52.068
		c-9.58,0-17.356,7.767-17.356,17.356v17.356h-34.712c-4.79,0-8.678,3.888-8.678,8.678v60.867c0,4.86,3.94,8.799,8.799,8.799h155.96
		c4.86,0,8.799-3.94,8.799-8.799V43.39c0-4.79-3.888-8.678-8.678-8.678H355.857z"/>
	<path style="fill:#6C4126;" d="M399.247,60.746v43.511c0,4.86-3.94,8.799-8.799,8.799h-155.96c-4.86,0-8.799-3.94-8.799-8.799
		V60.746h-86.78v442.698h347.119V60.746H399.247z"/>
	<polygon style="fill:#CCC6AE;" points="373.213,460.054 373.213,390.63 442.637,390.63 	"/>
	<path style="fill:#ECE8D8;" d="M399.247,95.579v8.678c0,4.86-3.94,8.799-8.799,8.799h-155.96c-4.86,0-8.799-3.94-8.799-8.799
		v-8.678h-43.39v364.475h190.915V390.63h69.424V95.579H399.247z"/>
	<g>
		<polygon style="fill:#C9B693;" points="225.688,208.393 277.756,208.393 277.756,156.325 225.688,156.325 		"/>
		<polygon style="fill:#C9B693;" points="225.688,303.85 277.756,303.85 277.756,251.783 225.688,251.783 		"/>
		<polygon style="fill:#C9B693;" points="225.688,399.308 277.756,399.308 277.756,347.24 225.688,347.24 		"/>
		<path style="fill:#C9B693;" d="M399.247,165.003h-78.102c-4.79,0-8.678-3.879-8.678-8.678c0-4.799,3.888-8.678,8.678-8.678h78.102
			c4.79,0,8.678,3.879,8.678,8.678C407.925,161.124,404.037,165.003,399.247,165.003"/>
		<path style="fill:#C9B693;" d="M373.213,208.393h-52.068c-4.79,0-8.678-3.879-8.678-8.678c0-4.799,3.888-8.678,8.678-8.678h52.068
			c4.79,0,8.678,3.879,8.678,8.678C381.891,204.514,378.004,208.393,373.213,208.393"/>
		<path style="fill:#C9B693;" d="M399.247,260.46h-78.102c-4.79,0-8.678-3.879-8.678-8.678c0-4.799,3.888-8.678,8.678-8.678h78.102
			c4.79,0,8.678,3.879,8.678,8.678C407.925,256.581,404.037,260.46,399.247,260.46"/>
		<path style="fill:#C9B693;" d="M373.213,303.85h-52.068c-4.79,0-8.678-3.879-8.678-8.678s3.888-8.678,8.678-8.678h52.068
			c4.79,0,8.678,3.879,8.678,8.678S378.004,303.85,373.213,303.85"/>
		<path style="fill:#C9B693;" d="M399.247,364.596h-78.102c-4.79,0-8.678-3.879-8.678-8.678c0-4.799,3.888-8.678,8.678-8.678h78.102
			c4.79,0,8.678,3.879,8.678,8.678C407.925,360.717,404.037,364.596,399.247,364.596"/>
		<path style="fill:#C9B693;" d="M338.501,407.986h-17.356c-4.79,0-8.678-3.879-8.678-8.678c0-4.799,3.888-8.678,8.678-8.678h17.356
			c4.79,0,8.678,3.879,8.678,8.678C347.179,404.107,343.292,407.986,338.501,407.986"/>
	</g>
	<path style="fill:#E0A370;" d="M52.129,503.444L17.417,434.02l0,0c21.851-10.926,47.573-10.926,69.424,0l0,0L52.129,503.444z"/>
	<g>
		<polygon style="fill:#FFCB43;" points="17.417,86.901 86.84,86.901 86.84,52.189 17.417,52.189 		"/>
		<polygon style="fill:#FFCB43;" points="43.451,425.342 60.807,425.342 60.807,86.901 43.451,86.901 		"/>
	</g>
</g>
<g>
</g>
<g>
</g>
<g>
</g>
<g>
</g>
<g>
</g>
<g>
</g>
<g>
</g>
<g>
</g>
<g>
</g>
<g>
</g>
<g>
</g>
<g>
</g>
<g>
</g>
<g>
</g>
<g>
</g>
</svg>
